# xmcd
#
# Track frame offsets: 
#        150
#        12784
#        24465
#        42100
#        54352
#        72248
#        85291
#        99022
#        113829
#        123763
#
# Disc length: 1798 seconds
#
# Revision: 0
# Processed by: cddbd v1.5.2PL0 Copyright (c) Steve Scherf et al.
# Submitted via: ExactAudioCopy v0.95b4
#
DISCID=6c07040a
DTITLE=Bobby Crocker - Bobby Crocker
DYEAR=1991
DGENRE=Country
TTITLE0=No Woman Like Mine
TTITLE1=Hooked
TTITLE2=Nobody's Perfect
TTITLE3=Not So Long Ago
TTITLE4=After You
TTITLE5=Goodbye Lady Goodbye
TTITLE6=Sad Sad Feelin'
TTITLE7=Fool For A Cowgirl
TTITLE8=Crazy As Hell
TTITLE9=No Carousel
EXTD=
EXTT0=
EXTT1=
EXTT2=
EXTT3=
EXTT4=
EXTT5=
EXTT6=
EXTT7=
EXTT8=
EXTT9=
PLAYORDER=
